<svg width="126" height="108" viewBox="0 0 126 108" fill="none" xmlns="http://www.w3.org/2000/svg">
<path d="M112.375 57.575L63.0001 104L13.6251 57.575C10.3684 54.5663 7.80309 50.9501 6.0908 46.954C4.37851 42.9579 3.55631 38.6684 3.67597 34.3558C3.79562 30.0432 4.85455 25.8009 6.78606 21.8959C8.71758 17.9909 11.4798 14.5078 14.8989 11.6661C18.318 8.82441 22.3198 6.68556 26.6523 5.38426C30.9848 4.08296 35.5542 3.64741 40.0728 4.10502C44.5913 4.56262 48.9611 5.90349 52.907 8.04317C56.8529 10.1829 60.2894 13.075 63.0001 16.5375C65.7225 13.1001 69.163 10.2333 73.1062 8.11629C77.0494 5.99931 81.4104 4.67782 85.9162 4.23451C90.4221 3.7912 94.9759 4.23562 99.2925 5.53996C103.609 6.84429 107.596 8.98046 111.003 11.8148C114.41 14.6491 117.164 18.1205 119.093 22.0118C121.022 25.9031 122.084 30.1305 122.213 34.4294C122.341 38.7283 121.534 43.0062 119.841 46.9953C118.149 50.9844 115.607 54.5989 112.375 57.6125" stroke="white" stroke-width="7" stroke-linecap="round" stroke-linejoin="round"/>
<path d="M63 16.5L41.3211 37.0813C40.0869 38.2533 39.3936 39.8427 39.3936 41.5C39.3936 43.1573 40.0869 44.7467 41.3211 45.9187L44.8958 49.3125C49.4383 53.625 56.8117 53.625 61.3542 49.3125L67.9375 43.0625C71.866 39.3329 77.1942 37.2377 82.75 37.2377C88.3057 37.2377 93.6339 39.3329 97.5625 43.0625L112.375 57.125M66.2917 75.875L79.4583 88.375M82.75 60.25L95.9167 72.75" stroke="white" stroke-width="7" stroke-linecap="round" stroke-linejoin="round"/>
</svg>
