<svg width="140" height="132" viewBox="0 0 140 132" fill="none" xmlns="http://www.w3.org/2000/svg">
<path d="M99.1004 113.804L95.1538 82.206C94.5945 77.7304 92.4194 73.6132 89.0375 70.6288C85.6556 67.6444 81.2999 65.9983 76.7894 66H63.1981C58.6898 66.0013 54.3371 67.6487 50.9578 70.6329C47.5785 73.6171 45.4051 77.7325 44.8461 82.206L40.8933 113.804C40.6763 115.54 40.8312 117.302 41.3476 118.974C41.864 120.645 42.7302 122.188 43.8885 123.499C45.0468 124.81 46.4708 125.86 48.0659 126.578C49.661 127.297 51.3908 127.668 53.1403 127.667H86.8596C88.6086 127.667 90.3376 127.295 91.932 126.577C93.5264 125.858 94.9497 124.808 96.1073 123.497C97.2649 122.186 98.1305 120.643 98.6466 118.972C99.1626 117.301 99.3173 115.539 99.1004 113.804Z" stroke="white" stroke-width="7" stroke-linecap="round" stroke-linejoin="round"/>
<path d="M70 41.3333C80.2173 41.3333 88.5 33.0505 88.5 22.8333C88.5 12.616 80.2173 4.33325 70 4.33325C59.7827 4.33325 51.5 12.616 51.5 22.8333C51.5 33.0505 59.7827 41.3333 70 41.3333Z" stroke="white" stroke-width="7"/>
<path d="M20.6668 59.8332C27.4783 59.8332 33.0002 54.3113 33.0002 47.4998C33.0002 40.6883 27.4783 35.1665 20.6668 35.1665C13.8553 35.1665 8.3335 40.6883 8.3335 47.4998C8.3335 54.3113 13.8553 59.8332 20.6668 59.8332Z" stroke="white" stroke-width="7"/>
<path d="M119.333 59.8332C126.145 59.8332 131.667 54.3113 131.667 47.4998C131.667 40.6883 126.145 35.1665 119.333 35.1665C112.522 35.1665 107 40.6883 107 47.4998C107 54.3113 112.522 59.8332 119.333 59.8332Z" stroke="white" stroke-width="7"/>
<path d="M20.6667 78.3333H18.7797C15.8602 78.3329 13.0352 79.3682 10.8073 81.2551C8.57942 83.142 7.09314 85.758 6.61287 88.6377L4.55937 100.971C4.26468 102.738 4.35847 104.548 4.83422 106.275C5.30996 108.002 6.15624 109.605 7.31419 110.972C8.47214 112.339 9.91397 113.437 11.5394 114.19C13.1648 114.943 14.9348 115.333 16.7262 115.333H39.1667M119.333 78.3333H121.22C124.14 78.3329 126.965 79.3682 129.193 81.2551C131.421 83.142 132.907 85.758 133.387 88.6377L135.441 100.971C135.735 102.738 135.642 104.548 135.166 106.275C134.69 108.002 133.844 109.605 132.686 110.972C131.528 112.339 130.086 113.437 128.461 114.19C126.835 114.943 125.065 115.333 123.274 115.333H100.833" stroke="white" stroke-width="7" stroke-linecap="round" stroke-linejoin="round"/>
</svg>
