<svg width="124" height="136" viewBox="0 0 124 136" fill="none" xmlns="http://www.w3.org/2000/svg">
<path d="M68.1666 12.5001C92.0932 12.5001 111.333 31.8634 111.333 55.6667C111.333 72.9334 101.282 87.6717 86.6666 94.5784V123.5H43.4999V105H37.3332C30.4882 105 24.9999 99.5117 24.9999 92.6667V74.1667H15.7499C13.1599 74.1667 11.6799 71.0834 13.1599 69.1717L24.9999 53.5701C25.5432 42.4904 30.3293 32.0447 38.366 24.3983C46.4027 16.752 57.0736 12.4915 68.1666 12.5001ZM68.1666 0.166748C39.8616 0.166748 16.4282 21.2567 13.0366 48.8834L3.41657 61.8334H3.23157L3.10824 62.0184C-0.283432 66.7051 -0.715099 72.8717 1.93657 77.9901C4.15657 82.2451 8.10324 85.2051 12.6666 86.1301V92.6667C12.6666 104.075 20.5599 113.757 31.1666 116.532V135.833H98.9999V101.917C114.417 91.6184 123.667 74.5367 123.667 55.6667C123.667 25.0184 98.7532 0.166748 68.1666 0.166748ZM94.8682 51.3501L82.7816 54.4951L91.6616 63.4984C93.8199 65.5951 93.8199 69.1717 91.6616 71.3301C89.5032 73.4884 85.9266 73.4884 83.8299 71.3301L74.8882 62.4501L71.6816 74.5367C70.9416 77.5584 67.9199 79.2234 65.0832 78.4834C64.3652 78.3035 63.6899 77.9833 63.0961 77.5413C62.5024 77.0993 62.0019 76.5442 61.6236 75.908C61.2453 75.2717 60.9966 74.5669 60.8919 73.8342C60.7871 73.1014 60.8284 72.3552 61.0132 71.6384L64.2816 59.5517L52.1949 62.8201C51.4781 63.0049 50.7319 63.0462 49.9991 62.9414C49.2664 62.8367 48.5616 62.588 47.9253 62.2097C47.2891 61.8314 46.734 61.3309 46.292 60.7372C45.85 60.1434 45.5298 59.4681 45.3499 58.7501C44.6099 55.9751 46.3366 52.8917 49.2966 52.1517L61.3832 48.9451L52.5032 40.0034C51.5755 38.9438 51.0853 37.5712 51.1319 36.1636C51.1786 34.756 51.7586 33.4188 52.7544 32.4229C53.7503 31.4271 55.0875 30.8471 56.4951 30.8004C57.9026 30.7538 59.2753 31.244 60.3349 32.1717L69.3382 41.0517L72.4832 28.9651C73.2232 25.9434 76.3066 24.2167 79.2049 25.0184C82.2266 25.8201 83.9532 28.8417 83.1516 31.8017L79.8832 43.9501L92.0316 40.6817C94.9916 39.8801 98.0132 41.6067 98.8149 44.6284C99.6166 47.5267 97.8899 50.6101 94.8682 51.3501Z" fill="white"/>
</svg>
