<svg width="204" height="204" viewBox="0 0 204 204" fill="none" xmlns="http://www.w3.org/2000/svg">
<path d="M82.1355 144.5H121.856M102 25.5V34M156.094 47.906L150.084 53.9155M178.5 102H170M34 102H25.5M53.9155 53.9155L47.906 47.906M71.944 132.056C66.0014 126.112 61.9548 118.539 60.3158 110.295C58.6768 102.051 59.5191 93.5065 62.7362 85.7413C65.9532 77.9761 71.4006 71.3392 78.3894 66.6697C85.3783 62.0002 93.5948 59.5079 102 59.5079C110.405 59.5079 118.622 62.0002 125.611 66.6697C132.599 71.3392 138.047 77.9761 141.264 85.7413C144.481 93.5065 145.323 102.051 143.684 110.295C142.045 118.539 137.999 126.112 132.056 132.056L127.398 136.706C124.735 139.369 122.623 142.531 121.182 146.011C119.741 149.491 119 153.22 119 156.986V161.5C119 166.009 117.209 170.333 114.021 173.521C110.833 176.709 106.509 178.5 102 178.5C97.4913 178.5 93.1673 176.709 89.9792 173.521C86.7911 170.333 85 166.009 85 161.5V156.986C85 149.379 81.974 142.078 76.602 136.706L71.944 132.056Z" stroke="white" stroke-width="8" stroke-linecap="round" stroke-linejoin="round"/>
<path d="M101.5 92.5624C99.5345 92.5624 97.6131 93.1452 95.9789 94.2372C94.3447 95.3291 93.071 96.8812 92.3189 98.697C91.5667 100.513 91.3699 102.511 91.7534 104.439C92.1368 106.366 93.0833 108.137 94.473 109.527C95.8628 110.917 97.6335 111.863 99.5612 112.246C101.489 112.63 103.487 112.433 105.303 111.681C107.119 110.929 108.671 109.655 109.763 108.021C110.855 106.387 111.437 104.465 111.437 102.5C111.435 99.8652 110.387 97.3391 108.524 95.4761C106.661 93.613 104.135 92.5652 101.5 92.5624ZM101.5 109.125C100.19 109.125 98.9087 108.736 97.8193 108.008C96.7298 107.28 95.8806 106.246 95.3792 105.035C94.8778 103.825 94.7466 102.493 95.0022 101.207C95.2578 99.9223 95.8888 98.7419 96.8153 97.8153C97.7419 96.8888 98.9223 96.2578 100.207 96.0022C101.493 95.7466 102.825 95.8778 104.035 96.3792C105.246 96.8806 106.28 97.7298 107.008 98.8193C107.736 99.9087 108.125 101.19 108.125 102.5C108.125 104.257 107.427 105.942 106.184 107.184C104.942 108.427 103.257 109.125 101.5 109.125ZM119.719 102.947C119.727 102.649 119.727 102.351 119.719 102.053L122.808 98.1937C122.97 97.991 123.082 97.7532 123.135 97.4993C123.188 97.2455 123.181 96.9826 123.114 96.732C122.608 94.8286 121.85 93.001 120.861 91.2975C120.732 91.0745 120.552 90.8849 120.337 90.7436C120.121 90.6024 119.875 90.5134 119.619 90.4838L114.709 89.9373C114.504 89.7219 114.297 89.5149 114.087 89.3162L113.508 84.393C113.478 84.1367 113.389 83.8909 113.247 83.6752C113.105 83.4596 112.915 83.28 112.692 83.1508C110.988 82.1639 109.16 81.4072 107.257 80.9003C107.007 80.8337 106.744 80.8269 106.49 80.8804C106.236 80.934 105.998 81.0465 105.796 81.2088L101.947 84.2812H101.053L97.1937 81.1985C96.991 81.0365 96.7532 80.9244 96.4993 80.8712C96.2455 80.818 95.9826 80.8251 95.732 80.8921C93.8289 81.3993 92.0014 82.1568 90.2975 83.1446C90.0745 83.274 89.8849 83.4537 89.7436 83.6694C89.6024 83.885 89.5134 84.1307 89.4838 84.3867L88.9373 89.3058C88.7219 89.5115 88.5149 89.7185 88.3162 89.9269L83.393 90.4921C83.1367 90.5219 82.8909 90.6112 82.6752 90.7528C82.4596 90.8944 82.28 91.0845 82.1508 91.3078C81.1639 93.012 80.4072 94.8394 79.9003 96.7424C79.8337 96.9931 79.8269 97.2561 79.8804 97.5099C79.934 97.7638 80.0465 98.0016 80.2088 98.204L83.2812 102.053V102.947L80.1985 106.806C80.0365 107.009 79.9244 107.247 79.8712 107.5C79.818 107.754 79.8251 108.017 79.8921 108.268C80.3984 110.171 81.1559 111.999 82.1446 113.702C82.274 113.925 82.4537 114.115 82.6694 114.256C82.885 114.397 83.1307 114.486 83.3867 114.516L88.2975 115.063C88.5032 115.278 88.7102 115.485 88.9186 115.684L89.4921 120.607C89.5219 120.863 89.6112 121.109 89.7528 121.325C89.8944 121.54 90.0845 121.72 90.3078 121.849C92.012 122.836 93.8394 123.593 95.7424 124.099C95.9931 124.166 96.2561 124.173 96.5099 124.119C96.7638 124.066 97.0016 123.953 97.204 123.791L101.053 120.719C101.351 120.727 101.649 120.727 101.947 120.719L105.806 123.808C106.009 123.97 106.247 124.082 106.5 124.135C106.754 124.188 107.017 124.181 107.268 124.114C109.171 123.608 110.999 122.85 112.702 121.861C112.925 121.732 113.115 121.552 113.256 121.337C113.397 121.121 113.486 120.875 113.516 120.619L114.063 115.709C114.278 115.504 114.485 115.297 114.684 115.087L119.607 114.508C119.863 114.478 120.109 114.389 120.325 114.247C120.54 114.105 120.72 113.915 120.849 113.692C121.836 111.988 122.593 110.16 123.099 108.257C123.166 108.007 123.173 107.744 123.119 107.49C123.066 107.236 122.953 106.998 122.791 106.796L119.719 102.947ZM116.385 101.601C116.421 102.2 116.421 102.8 116.385 103.398C116.361 103.808 116.489 104.212 116.746 104.533L119.683 108.204C119.346 109.275 118.915 110.314 118.394 111.309L113.715 111.839C113.307 111.884 112.931 112.079 112.659 112.386C112.26 112.834 111.836 113.258 111.388 113.657C111.081 113.929 110.886 114.305 110.841 114.713L110.322 119.387C109.327 119.909 108.287 120.34 107.216 120.677L103.543 117.739C103.249 117.505 102.884 117.377 102.508 117.377H102.409C101.81 117.412 101.21 117.412 100.612 117.377C100.202 117.353 99.7977 117.481 99.4772 117.737L95.7962 120.677C94.7249 120.34 93.6856 119.909 92.6907 119.387L92.1607 114.715C92.1155 114.307 91.9208 113.931 91.6142 113.659C91.166 113.26 90.7415 112.836 90.343 112.388C90.0708 112.081 89.6946 111.886 89.2871 111.841L84.6124 111.319C84.0911 110.325 83.6594 109.285 83.3226 108.214L86.2603 104.541C86.5169 104.221 86.6452 103.816 86.6206 103.407C86.5854 102.808 86.5854 102.208 86.6206 101.61C86.6452 101.2 86.5169 100.796 86.2603 100.475L83.3226 96.7962C83.6597 95.7249 84.0913 94.6856 84.6124 93.6907L89.2851 93.1607C89.6925 93.1155 90.0687 92.9208 90.3409 92.6142C90.7394 92.166 91.1639 91.7415 91.6121 91.343C91.9199 91.0706 92.1155 90.6936 92.1607 90.2851L92.6804 85.6124C93.6752 85.0911 94.7144 84.6594 95.7858 84.3226L99.4586 87.2603C99.7791 87.5169 100.183 87.6452 100.593 87.6206C101.192 87.5854 101.792 87.5854 102.39 87.6206C102.8 87.6452 103.204 87.5169 103.525 87.2603L107.204 84.3226C108.275 84.6597 109.314 85.0913 110.309 85.6124L110.839 90.2851C110.884 90.6925 111.079 91.0687 111.386 91.3409C111.834 91.7394 112.258 92.1639 112.657 92.6121C112.929 92.9187 113.305 93.1134 113.713 93.1587L118.387 93.6783C118.909 94.6731 119.34 95.7124 119.677 96.7838L116.739 100.457C116.48 100.78 116.352 101.188 116.379 101.601H116.385Z" fill="white"/>
</svg>
